<?xml version="1.0" encoding="iso-8859-1"?>
<!-- Uploaded to: SVG Repo, www.svgrepo.com, Generator: SVG Repo Mixer Tools -->
<svg height="800px" width="800px" version="1.1" id="Layer_1" xmlns="http://www.w3.org/2000/svg" xmlns:xlink="http://www.w3.org/1999/xlink" 
	 viewBox="0 0 495 495" xml:space="preserve">
<g>
	<polygon style="fill:#9CDD05;" points="247.5,0 247.5,40 455,40 455,455 247.5,455 247.5,495 495,495 495,0 	"/>
	<polygon style="fill:#B2FA09;" points="40,455 40,40 247.5,40 247.5,0 0,0 0,495 247.5,495 247.5,455 	"/>
	<polygon style="fill:#B2FA09;" points="125.68,269.283 181.605,269.283 181.605,229.109 125.68,229.109 125.68,165.381 
		185.299,165.381 185.299,123.399 77.403,123.399 77.403,371.601 125.68,371.601 	"/>
	<path style="fill:#B2FA09;" d="M281.136,371.601l15.45-62.561c4.146-17.071,8.104-35.763,10.327-56.679h0.715
		c2.224,20.464,5.465,39.608,9.121,56.228l13.717,63.011h40.776l46.354-180.028h-47.408l-11.042,76.842
		c-2.941,19.56-5.277,38.289-6.332,55.362h-1.017c-2.223-17.828-5.578-35.352-9.271-55.663l-15.452-76.541h-37.234l-15.753,78.463
		c-3.241,16.771-6.934,36.669-9.874,53.742h-1.168c-1.47-17.073-3.693-35.049-6.218-54.647l-9.535-77.558h-51.668l44.282,180.028
		H281.136z"/>
</g>
</svg>